
		<svg xmlns="http://www.w3.org/2000/svg" xmlns:xlink="http://www.w3.org/1999/xlink" version="1.1" width="3137.299771167048" height="1997.7116704805492">
			<rect fill="#012201" width="3137.299771167048" height="1997.7116704805492"/>
			<g transform="scale(6.864988558352403) translate(10, 10)">
				<defs id="SvgjsDefs1886"></defs><g id="SvgjsG1887" featureKey="root" fill="#012201" transform="matrix(1,0,0,1,0,0)"></g><g id="SvgjsG1888" featureKey="container1" fill="#ffffff" transform="matrix(1,0,0,1,154,20)"><path xmlns="http://www.w3.org/2000/svg" fill-rule="nonzero" d="M0,0 H130 V119 H0,0zM6,6 V113 H124 V6,6z"></path></g><g id="SvgjsG1889" featureKey="symbol1" fill="#ffffff" transform="matrix(0.09215673748692736,0,0,0.09215673748692736,184,45)"><path style="" d="m 537.96481,0 c -17.2851,0 -31.257,13.97184 -31.257,31.25689 0,17.25386 13.9719,31.25689 31.257,31.25689 l 114.9267,0 L 379.79161,335.56285 106.7755,62.5747 l 114.9014,0 c 17.285,0 31.257,-14.00302 31.257,-31.25688 0,-17.28506 -14.0344,-31.25689 -31.257,-31.25689 l -190.4201,0 C 13.9718,0.06093 0,14.03276 0,31.31782 l 0,190.387 c 0,17.25386 13.9718,31.25689 31.2568,31.25689 17.2852,0 31.2595,-14.00303 31.2595,-31.25689 l 0,-114.99782 281.8756,281.85015 0,325.3529 c 0,17.285 13.9692,31.2568 31.25431,31.2568 17.2538,0 31.257,-14.003 31.257,-31.2568 l 0,-317.0697 290.1587,-290.10289 0,114.90643 c 0,17.28506 14.0342,31.25689 31.2569,31.25689 17.285,0 31.2567,-14.03422 31.2567,-31.25689 l 0,-190.387 C 759.57551,13.97184 745.60381,0 728.31881,0 l -190.354,0 z" fill="#fff"></path></g><g id="SvgjsG1890" featureKey="text1" fill="#ffffff" transform="matrix(4.587376751818718,0,0,4.587376751818718,3.623788833771324,115.28205504580544)"><path d="M8.8 11.58 l3.7 0 l0 0.92 c-0.84 0.1 -1.16 0.44 -1.68 1.18 l-3.3 4.88 l0 3.8 c0 0.46 0.74 0.56 1.46 0.66 l0 0.98 l-5.04 0 l0 -0.98 c0.72 -0.1 1.48 -0.2 1.48 -0.66 l0 -3.28 l-3.26 -4.9 c-0.78 -1.18 -0.98 -1.58 -1.86 -1.68 l0 -0.92 l4.54 0 l0 0.92 c-0.58 0.1 -0.96 0.32 -0.74 0.66 l2.9 4.38 l2.76 -4.18 c0.34 -0.52 -0.18 -0.76 -0.96 -0.86 l0 -0.92 z M17.92 14.8 c2.3 0 4.54 1.7 4.54 4.58 c0 2.94 -2.24 4.74 -4.5 4.74 c-2.3 0 -4.56 -1.8 -4.56 -4.58 c0 -3.04 2.26 -4.74 4.52 -4.74 z M20.22 20.02 c0 -2.6 -1.08 -4.08 -2.5 -4.08 c-1.32 0 -2.08 0.84 -2.08 2.96 c0 2.46 1.08 3.98 2.48 3.98 c1.32 0 2.1 -0.78 2.1 -2.86 z M31.580000000000002 21.44 c0 1.68 -1.84 2.68 -4.06 2.68 c-2.02 0 -3.62 -1.06 -3.76 -1.48 c-0.4 -1.22 -0.18 -1.78 0.38 -1.86 c0.94 -0.16 1.16 0.18 1.22 0.54 c0.18 1.24 0.86 1.82 2.16 1.82 c1.36 0 2.02 -0.58 2.02 -1.36 c0 -0.88 -1.1 -1.2 -2.32 -1.56 c-1.28 -0.38 -3.3 -1.08 -3.3 -2.88 c0 -1.48 1.2 -2.54 3.64 -2.54 c1.9 0 3.46 1.08 3.5 1.48 c0.12 1.38 -0.2 1.64 -0.68 1.68 c-0.8 0.06 -1.1 -0.2 -1.02 -0.62 c0.14 -0.84 -0.54 -1.66 -1.8 -1.66 c-1.12 0 -1.68 0.46 -1.68 1.12 c0 0.96 1.06 1.3 2.06 1.6 c1.4 0.42 3.64 0.94 3.64 3.04 z M40.599999999999994 21.44 c0 1.68 -1.84 2.68 -4.06 2.68 c-2.02 0 -3.62 -1.06 -3.76 -1.48 c-0.4 -1.22 -0.18 -1.78 0.38 -1.86 c0.94 -0.16 1.16 0.18 1.22 0.54 c0.18 1.24 0.86 1.82 2.16 1.82 c1.36 0 2.02 -0.58 2.02 -1.36 c0 -0.88 -1.1 -1.2 -2.32 -1.56 c-1.28 -0.38 -3.3 -1.08 -3.3 -2.88 c0 -1.48 1.2 -2.54 3.64 -2.54 c1.9 0 3.46 1.08 3.5 1.48 c0.12 1.38 -0.2 1.64 -0.68 1.68 c-0.8 0.06 -1.1 -0.2 -1.02 -0.62 c0.14 -0.84 -0.54 -1.66 -1.8 -1.66 c-1.12 0 -1.68 0.46 -1.68 1.12 c0 0.96 1.06 1.3 2.06 1.6 c1.4 0.42 3.64 0.94 3.64 3.04 z M43.63999999999999 13.18 c-0.72 0 -1.3 -0.58 -1.3 -1.28 s0.58 -1.28 1.3 -1.28 c0.7 0 1.28 0.58 1.28 1.28 s-0.58 1.28 -1.28 1.28 z M44.839999999999996 22.62 c0 0.46 0.34 0.56 0.86 0.56 l0 0.82 l-3.82 0 l0 -0.82 c0.54 0 0.88 -0.1 0.88 -0.56 l0 -5.92 c0 -0.46 -0.16 -0.62 -0.56 -0.62 l-0.4 0 l0 -0.92 l2.4 -0.34 c0.46 -0.06 0.64 0.3 0.64 0.74 l0 7.06 z  M59.879999999999995 15.38 c-0.26 0.04 -0.42 -0.02 -0.48 -0.24 l-0.22 -0.8 c-0.26 -1.08 -1.6 -2.02 -2.98 -2.02 c-1.78 0 -2.5 1.12 -2.36 2.24 c0.16 1.2 1.34 1.56 2.8 2.02 c1.24 0.38 4.46 1.1 4.74 3.76 c0.3 2.74 -2.56 3.96 -4.78 3.96 c-2.16 0 -2.92 -1.1 -4.16 -0.68 l-1.04 -3.14 l0.88 -0.32 c0.3 -0.1 0.5 -0.04 0.66 0.26 c0.14 0.26 0.3 0.54 0.44 0.82 c0.58 1.16 1.66 1.9 3.18 1.9 c1.42 0 2.66 -0.58 2.52 -2.02 c-0.14 -1.42 -1.68 -1.8 -3.2 -2.26 c-1.48 -0.46 -3.8 -1.26 -4.12 -3.64 c-0.26 -2.1 1.46 -3.96 4.42 -3.96 c2.56 0 3.16 1.18 4.38 1.42 l0.26 2.54 z M72.06 22 c0 0.66 0.18 1.1 1.2 0.86 l-0.26 0.94 c-0.44 0.16 -1 0.2 -1.38 0.2 c-1.08 0 -1.64 -0.66 -1.64 -1.44 l0 -4.02 c0 -1.44 -0.24 -2.36 -1.48 -2.36 c-1.34 0 -2.36 1.26 -2.74 1.7 l0 4.74 c0 0.46 0.32 0.56 1 0.56 l0 0.82 l-4.02 0 l0 -0.82 c0.64 0 0.94 -0.1 0.94 -0.56 l0 -9.68 c0 -0.66 -0.42 -0.88 -1.18 -0.78 l0 -0.9 l2.66 -0.36 c0.74 -0.1 0.6 0.6 0.54 1.48 l0 3.9 l-0.1 0.72 c0.36 -0.62 1.42 -2.22 3.34 -2.22 c1.86 0 3.1 0.72 3.12 3.5 l0 3.72 z M78.78 14.8 c2.3 0 4.54 1.7 4.54 4.58 c0 2.94 -2.24 4.74 -4.5 4.74 c-2.3 0 -4.56 -1.8 -4.56 -4.58 c0 -3.04 2.26 -4.74 4.52 -4.74 z M81.08 20.02 c0 -2.6 -1.08 -4.08 -2.5 -4.08 c-1.32 0 -2.08 0.84 -2.08 2.96 c0 2.46 1.08 3.98 2.48 3.98 c1.32 0 2.1 -0.78 2.1 -2.86 z M92.36 22.12 c0 0.66 0.34 0.84 1.1 0.72 l-0.06 0.8 c-0.76 0.32 -1.28 0.48 -1.76 0.48 c-0.66 0 -1.18 -0.6 -1.32 -1.96 c-0.4 0.96 -1.2 1.96 -2.74 1.96 c-1.68 0 -3.16 -0.8 -3.16 -2.52 c0 -1.66 1.08 -2.68 5.82 -3.32 l0 -0.4 c0 -1.44 -0.42 -2.14 -1.52 -2.14 c-1.04 0 -1.54 0.26 -1.54 1.52 c0 0.42 -0.6 0.64 -1.2 0.64 s-1 -0.42 -1 -0.96 c0 -1.4 1.84 -2.14 3.82 -2.14 c2.14 0 3.56 0.96 3.56 3.5 l0 3.82 z M88.06 22.82 c1.3 0 1.88 -1.2 2.18 -1.96 l0 -1.7 c-3.3 0.52 -3.62 1.56 -3.62 2.34 c0 0.74 0.6 1.32 1.44 1.32 z"></path></g><g id="SvgjsG1891" featureKey="text3" fill="#ffffff" transform="matrix(1.2905819116832604,0,0,1.2905819116832604,47.838476771802995,229.3522970193451)"><path d="M12.92 22.5 c-1.26 1.1 -2.9 1.7 -4.76 1.7 c-3.84 0 -7.26 -2.96 -7.26 -7.2 s3.42 -7.2 7.26 -7.2 c1.84 0 3.46 0.6 4.68 1.66 l-1.58 1.8 c-0.8 -0.6 -1.86 -1 -2.94 -1 c-2.6 0 -4.7 1.98 -4.7 4.74 s2.1 4.74 4.7 4.74 c1.1 0 2.2 -0.42 3.02 -1.08 z M24.14668599653602 9.8 c3.84 0 7.24 2.96 7.24 7.2 s-3.4 7.2 -7.24 7.2 s-7.24 -2.96 -7.24 -7.2 s3.4 -7.2 7.24 -7.2 z M24.14668599653602 21.740000000000002 c2.44 0 4.5 -1.98 4.5 -4.74 s-2.06 -4.74 -4.5 -4.74 c-2.46 0 -4.52 1.98 -4.52 4.74 s2.06 4.74 4.52 4.74 z M47.09337199307204 24 l-1.16 -2.7 l-6.92 0 l-1.16 2.7 l-2.78 0 l6.24 -14 l2.34 0 l6.22 14 l-2.78 0 z M39.933371993072036 19.16 l5.08 0 l-2.54 -5.92 z M65.58005798960805 22.5 c-1.26 1.1 -2.9 1.7 -4.76 1.7 c-3.84 0 -7.26 -2.96 -7.26 -7.2 s3.42 -7.2 7.26 -7.2 c1.84 0 3.46 0.6 4.68 1.66 l-1.58 1.8 c-0.8 -0.6 -1.86 -1 -2.94 -1 c-2.6 0 -4.7 1.98 -4.7 4.74 s2.1 4.74 4.7 4.74 c1.1 0 2.2 -0.42 3.02 -1.08 z M78.48674398614406 10 l2.62 0 l0 14 l-2.62 0 l0 -5.76 l-6 0 l0 5.76 l-2.62 0 l0 -14 l2.62 0 l0 5.82 l6 0 l0 -5.82 z M88.51342998268008 10 l0 14 l-2.62 0 l0 -14 l2.62 0 z M102.6001159792161 10 l2.62 0 l0 14 l-2 0 l-7.3 -9.22 l0 9.22 l-2.62 0 l0 -14 l2.02 0 l7.28 9.24 l0 -9.24 z M123.20680197575213 16.64 c0.54 4.66 -2.52 7.56 -6.26 7.56 c-3.92 0 -7.24 -2.96 -7.24 -7.2 s3.4 -7.2 7.24 -7.2 c1.82 0 3.46 0.6 4.68 1.66 l-1.58 1.8 c-0.8 -0.6 -1.86 -1 -2.94 -1 c-2.62 0 -4.68 1.98 -4.68 4.74 s2 4.74 4.52 4.74 c2 0 3.42 -0.8 3.84 -2.86 l-3.48 0 l0 -2.24 l5.9 0 z  M148.74017396882417 10 l-5.3 7.92 l0 6.08 l-2.62 0 l0 -6.08 l-5.3 -7.92 l2.96 0 l3.64 5.54 l3.64 -5.54 l2.98 0 z M159.86685996536016 9.8 c3.84 0 7.24 2.96 7.24 7.2 s-3.4 7.2 -7.24 7.2 s-7.24 -2.96 -7.24 -7.2 s3.4 -7.2 7.24 -7.2 z M159.86685996536016 21.740000000000002 c2.44 0 4.5 -1.98 4.5 -4.74 s-2.06 -4.74 -4.5 -4.74 c-2.46 0 -4.52 1.98 -4.52 4.74 s2.06 4.74 4.52 4.74 z M179.6335459618962 10 l2.62 0 l0 8.92 c0 3.4 -2.42 5.38 -5.32 5.38 c-2.92 0 -5.34 -1.98 -5.34 -5.38 l0 -8.92 l2.62 0 l0 8.92 c0 2.2 1.4 2.92 2.72 2.92 s2.7 -0.72 2.7 -2.92 l0 -8.92 z M197.8802319584322 24 l-2.78 0 l-3.12 -4.76 l-0.12 0 l-2.2 0 l0 4.76 l-2.62 0 l0 -14 l4.82 0 c3.14 0 5.12 1.92 5.12 4.7 c0 1.94 -0.96 3.38 -2.6 4.08 z M189.6602319584322 12.42 l0 4.56 l2.06 0 c1.58 0 2.64 -0.68 2.64 -2.28 c0 -1.58 -1.06 -2.28 -2.64 -2.28 l-2.06 0 z  M229.55360395150427 10 l-4.58 14 l-1.86 0 l-3.42 -9.34 l-3.4 9.34 l-1.86 0 l-4.58 -14 l2.76 0 l2.86 8.84 l3.22 -8.84 l2.02 0 l3.22 8.84 l2.86 -8.84 l2.76 0 z M244.96028994804027 24 l-1.16 -2.7 l-6.92 0 l-1.16 2.7 l-2.78 0 l6.24 -14 l2.34 0 l6.22 14 l-2.78 0 z M237.80028994804027 19.16 l5.08 0 l-2.54 -5.92 z M264.3469759445763 10 l-5.3 7.92 l0 6.08 l-2.62 0 l0 -6.08 l-5.3 -7.92 l2.96 0 l3.64 5.54 l3.64 -5.54 l2.98 0 z"></path></g>
			</g>
		</svg>
	